HIERARCHY
ROOT Hips
{
	OFFSET 0.000000 0.000000 0.000000
	CHANNELS 6 Xposition Yposition Zposition Xrotation Yrotation Zrotation
	JOINT LeftUpLeg_virtual
	{
		OFFSET 0.000000 0.000000 0.000000
		CHANNELS 3 Xrotation Yrotation Zrotation
		JOINT LeftUpLeg
		{
			OFFSET 11.394100 -6.187798 -0.413800
			CHANNELS 3 Xrotation Yrotation Zrotation
			JOINT LeftLeg
			{
				OFFSET 0.430247 -32.302673 3.732800
				CHANNELS 3 Xrotation Yrotation Zrotation
				JOINT LeftFoot
				{
					OFFSET -0.430247 -48.264931 -6.423300
					CHANNELS 3 Xrotation Yrotation Zrotation
					JOINT LeftToeBase
					{
						OFFSET 4.230900 -16.068199 23.438400
						CHANNELS 3 Xrotation Yrotation Zrotation
						JOINT LeftToe_End
						{
							OFFSET 4.510700 0.695400 19.974600
							CHANNELS 3 Xrotation Yrotation Zrotation
							End Site
							{
								OFFSET 0 0 0
							}
						}
					}
				}
			}
		}
	}
	JOINT RightUpLeg_virtual
	{
		OFFSET 0.000000 0.000000 0.000000
		CHANNELS 3 Xrotation Yrotation Zrotation
		JOINT RightUpLeg
		{
			OFFSET -11.333700 -6.187798 -0.413800
			CHANNELS 3 Xrotation Yrotation Zrotation
			JOINT RightLeg
			{
				OFFSET -0.430392 -32.302628 3.733000
				CHANNELS 3 Xrotation Yrotation Zrotation
				JOINT RightFoot
				{
					OFFSET 0.430392 -48.264973 -6.423500
					CHANNELS 3 Xrotation Yrotation Zrotation
					JOINT RightToeBase
					{
						OFFSET -4.230900 -16.068199 23.438400
						CHANNELS 3 Xrotation Yrotation Zrotation
						JOINT RightToe_End
						{
							OFFSET -4.510700 0.695400 19.974600
							CHANNELS 3 Xrotation Yrotation Zrotation
							End Site
							{
								OFFSET 0 0 0
							}
						}
					}
				}
			}
		}
	}
	JOINT Spine_virtual
	{
		OFFSET 0.000000 0.000000 0.000000
		CHANNELS 3 Xrotation Yrotation Zrotation
		JOINT Spine
		{
			OFFSET -0.002400 12.777504 0.315300
			CHANNELS 3 Xrotation Yrotation Zrotation
			JOINT Spine1
			{
				OFFSET -0.002067 5.816869 0.032633
				CHANNELS 3 Xrotation Yrotation Zrotation
				JOINT Spine1_split
				{
					OFFSET -0.002067 5.816869 0.032633
					CHANNELS 3 Xrotation Yrotation Zrotation
					JOINT Spine2
					{
						OFFSET -0.002067 5.816869 0.032633
						CHANNELS 3 Xrotation Yrotation Zrotation
						JOINT Neck_virtual
						{
							OFFSET 0.000000 0.000000 0.000000
							CHANNELS 3 Xrotation Yrotation Zrotation
							JOINT Neck
							{
								OFFSET -0.003700 21.199493 -0.826900
								CHANNELS 3 Xrotation Yrotation Zrotation
								JOINT Head
								{
									OFFSET 0.000000 20.442200 4.834800
									CHANNELS 3 Xrotation Yrotation Zrotation
									JOINT HeadTop_End
									{
										OFFSET 0.000000 34.668396 4.968400
										CHANNELS 3 Xrotation Yrotation Zrotation
										End Site
										{
											OFFSET 0 0 0
										}
									}
								}
							}
						}
						JOINT LeftShoulder_virtual
						{
							OFFSET 0.000000 0.000000 0.000000
							CHANNELS 3 Xrotation Yrotation Zrotation
							JOINT LeftShoulder
							{
								OFFSET 3.288150 8.794197 -1.372250
								CHANNELS 3 Xrotation Yrotation Zrotation
								JOINT LeftShoulder_split
								{
									OFFSET 3.288150 8.794197 -1.372250
									CHANNELS 3 Xrotation Yrotation Zrotation
									JOINT LeftArm
									{
										OFFSET 11.953299 -2.279007 -0.146200
										CHANNELS 3 Xrotation Yrotation Zrotation
										JOINT LeftForeArm
										{
											OFFSET 18.448900 0.000000 0.000000
											CHANNELS 3 Xrotation Yrotation Zrotation
											JOINT LeftHand
											{
												OFFSET 29.527798 0.000000 0.000000
												CHANNELS 3 Xrotation Yrotation Zrotation
												End Site
												{
													OFFSET 0 0 0
												}
											}
										}
									}
								}
							}
						}
						JOINT RightShoulder_virtual
						{
							OFFSET 0.000000 0.000000 0.000000
							CHANNELS 3 Xrotation Yrotation Zrotation
							JOINT RightShoulder
							{
								OFFSET -3.249400 8.794197 -1.372250
								CHANNELS 3 Xrotation Yrotation Zrotation
								JOINT RightShoulder_split
								{
									OFFSET -3.249400 8.794197 -1.372250
									CHANNELS 3 Xrotation Yrotation Zrotation
									JOINT RightArm
									{
										OFFSET -11.953299 -2.279007 -0.146200
										CHANNELS 3 Xrotation Yrotation Zrotation
										JOINT RightForeArm
										{
											OFFSET -18.448900 0.000000 0.000000
											CHANNELS 3 Xrotation Yrotation Zrotation
											JOINT RightHand
											{
												OFFSET -29.527802 0.000000 0.000000
												CHANNELS 3 Xrotation Yrotation Zrotation
												End Site
												{
													OFFSET 0 0 0
												}
											}
										}
									}
								}
							}
						}
					}
				}
			}
		}
	}
}
MOTION
Frames: 4
Frame Time: 0.03333333
-16.131433 82.176231 -2.308758 0.000000 0.000000 0.000000 -7.729163 -47.470207 2.011370 -26.712240 9.899194 21.859185 49.923608 -6.354872 12.077860 -21.005463 -11.369833 -24.126305 -5.829858 0.226864 0.469993 0.000000 0.000000 0.000000 -9.380305 -43.300121 2.740874 -32.743859 -4.206662 -33.824449 51.217137 -7.613567 -11.234581 -7.128563 -5.830509 26.108292 -3.072072 1.036899 -0.713166 0.000000 0.000000 0.000000 -6.441302 -45.045712 3.317002 10.289678 7.599062 -1.869402 2.256579 0.604657 -2.316425 0.443712 -1.429319 0.817166 0.000000 0.000000 0.000000 2.647755 0.427102 -2.018713 0.818647 13.558322 1.681130 11.152842 18.130713 0.201043 0.000000 0.000000 0.000000 3.174028 0.294557 -2.331198 2.022178 -2.327800 -13.153263 -2.506757 -3.083717 0.190344 -68.392262 -0.704596 -39.948964 178.716913 -75.535656 -179.777846 0.000000 0.000000 0.000000 3.705081 0.547638 -2.063010 3.275636 10.947279 -12.915185 -0.941294 0.413909 1.596407 -66.050914 20.084496 88.037061 -22.075767 85.487372 19.618516 0.000000 0.000000 0.000000 
-17.605919 82.527145 -2.607857 0.000000 0.000000 0.000000 -8.004278 -49.099593 2.068222 -25.257691 9.089866 21.955143 49.326168 -5.716676 12.495346 -17.854762 -10.825546 -23.513614 -6.771686 0.316458 -0.576892 0.000000 0.000000 0.000000 -9.836498 -44.357765 2.795143 -32.806317 -5.011202 -33.821625 52.258573 -8.241569 -11.007214 -9.819333 -5.662830 25.050002 -1.669975 1.264961 -0.203034 0.000000 0.000000 0.000000 -7.015390 -46.011047 3.397523 10.327600 7.253017 -2.141535 2.252818 0.125084 -2.409874 0.448427 -0.932280 1.023169 0.000000 0.000000 0.000000 2.588287 -0.117080 -2.093111 1.340595 13.713275 1.590235 11.424345 18.553082 -0.517842 0.000000 0.000000 0.000000 3.128420 -0.224408 -2.468852 2.111230 -0.990222 -12.901553 -2.282443 -3.026153 0.553369 -68.093100 -1.144611 -41.460952 178.847288 -74.658872 -179.453262 0.000000 0.000000 0.000000 3.608808 0.046209 -2.131594 3.142791 10.091302 -13.652307 -0.532224 0.477573 1.156668 -67.009360 18.701965 88.297872 -25.461045 85.754992 22.847316 0.000000 0.000000 0.000000 
-18.960924 83.560104 -2.672031 0.000000 0.000000 0.000000 -7.993479 -49.886851 2.240859 -24.220520 8.524579 21.803019 48.593593 -5.094254 12.476435 -14.158560 -10.693360 -22.581514 -8.426112 0.399112 -1.455708 0.000000 0.000000 0.000000 -10.102638 -45.140802 2.888045 -32.602836 -5.964251 -33.433134 52.444788 -8.938014 -10.759444 -11.683279 -5.402694 23.876547 -0.788950 1.474083 0.097736 0.000000 0.000000 0.000000 -7.051796 -46.645486 3.562886 10.136230 6.872384 -2.269586 2.159493 -0.382040 -2.415018 0.437180 -0.498646 0.977336 0.000000 0.000000 0.000000 2.486559 -0.631989 -2.091346 1.735788 13.797377 1.694625 11.477240 19.051040 -1.390848 0.000000 0.000000 0.000000 3.031011 -0.717573 -2.512540 2.142254 -0.316122 -12.647116 -1.909186 -2.476631 0.593071 -66.666601 -1.596808 -43.137183 179.146177 -73.921423 -179.101917 0.000000 0.000000 0.000000 3.451675 -0.431398 -2.111596 3.013981 9.115521 -13.923772 -0.226111 0.473535 0.704116 -67.899156 17.109749 88.730209 -38.919938 87.085499 36.266877 0.000000 0.000000 0.000000 
-20.129124 84.916168 -2.582478 0.000000 0.000000 0.000000 -7.795283 -49.866272 2.464359 -24.153417 8.493141 21.428703 48.206294 -4.587461 11.896216 -10.933724 -11.060878 -21.542563 -9.296076 0.471505 -2.147911 0.000000 0.000000 0.000000 -10.146488 -45.643501 2.957287 -32.036893 -6.895519 -32.708198 51.466749 -9.397294 -10.676551 -12.214877 -4.889308 23.281530 -1.113839 1.585431 0.199303 0.000000 0.000000 0.000000 -6.693415 -46.961840 3.778788 9.794503 6.594223 -2.217017 2.009546 -0.762511 -2.354213 0.438375 -0.204766 0.872937 0.000000 0.000000 0.000000 2.399374 -0.961902 -2.048390 1.900213 13.773111 1.941594 11.183019 19.489506 -2.282711 0.000000 0.000000 0.000000 2.907772 -1.036380 -2.469411 2.101071 -0.323662 -12.530930 -1.488229 -1.666509 0.258920 -63.981722 -2.060952 -44.725940 179.551398 -73.403824 -178.789955 0.000000 0.000000 0.000000 3.305324 -0.746224 -2.035100 2.895359 8.139943 -13.580883 -0.093121 0.252831 0.338663 -67.807468 15.981031 89.112549 -106.615790 88.257068 104.078252 0.000000 0.000000 0.000000 
